<svg width="180" height="73" viewBox="0 0 180 73" fill="none" xmlns="http://www.w3.org/2000/svg">
<g clip-path="url(#clip0_1192_20913)">
<path d="M76.3194 45.1782L80.3238 56.8292C80.3612 56.9562 80.3796 57.0649 80.3796 57.1565C80.3796 57.4093 80.1059 57.5539 79.4684 57.5539H78.6683C78.14 57.5539 77.738 57.4636 77.6479 57.1736L76.9195 54.9634H72.6225L71.8928 57.1736C71.8033 57.4453 71.4934 57.5539 71.0559 57.5539H70.3276C69.5624 57.5539 69.2163 57.4093 69.2163 57.1565C69.2163 57.0649 69.2525 56.9569 69.2893 56.8292L73.2956 45.1782C73.4048 44.8895 73.8055 44.7979 74.3338 44.7979H75.2799C75.8083 44.7979 76.2089 44.8895 76.3194 45.1782ZM74.7529 48.187C74.6799 48.5674 74.6253 48.9661 74.4798 49.3464L73.4048 52.5719H76.1359L75.099 49.3464C74.9713 48.9661 74.8983 48.5674 74.8259 48.187H74.7529Z" fill="#004C99"/>
<path d="M89.9002 45.9575C89.9002 46.4472 89.3357 47.5346 88.8995 47.5346C88.6626 47.5346 88.0968 47.0816 86.8776 47.0816C85.4578 47.0816 85.1847 47.6787 85.1847 48.0957C85.1847 49.0933 86.0769 49.4547 87.1323 49.8724C88.6251 50.4884 90.4457 51.2308 90.4457 53.6969C90.4457 56.6488 88.3165 57.6642 86.3309 57.6642C83.5629 57.6642 82.0522 56.6855 82.0522 56.0688C82.0522 55.5083 82.7984 54.4557 83.1806 54.4557C83.5083 54.4557 84.3998 55.2904 85.8584 55.2904C86.6408 55.2904 87.5685 55.0553 87.5685 54.021C87.5685 52.9336 86.1302 52.6266 84.7643 51.9922C83.5083 51.3938 82.3075 50.5251 82.3075 48.3497C82.3075 45.7408 84.4913 44.6895 86.6223 44.6895C88.5534 44.6901 89.9002 45.3605 89.9002 45.9575Z" fill="#004C99"/>
<path d="M100.277 45.9575C100.277 46.4472 99.7125 47.5346 99.2756 47.5346C99.0401 47.5346 98.4749 47.0816 97.2544 47.0816C95.8352 47.0816 95.5615 47.6787 95.5615 48.0957C95.5615 49.0933 96.4537 49.4547 97.5103 49.8724C99.0032 50.4884 100.824 51.2308 100.824 53.6969C100.824 56.6488 98.694 57.6642 96.7083 57.6642C93.941 57.6642 92.4297 56.6855 92.4297 56.0688C92.4297 55.5083 93.1758 54.4557 93.5594 54.4557C93.887 54.4557 94.7786 55.2904 96.2359 55.2904C97.0176 55.2904 97.9466 55.0553 97.9466 54.021C97.9466 52.9336 96.5077 52.6266 95.1424 51.9922C93.8864 51.3938 92.685 50.5251 92.685 48.3497C92.685 45.7408 94.8694 44.6895 97.0011 44.6895C98.9308 44.6901 100.277 45.3605 100.277 45.9575Z" fill="#004C99"/>
<path d="M106.375 45.3786V56.9753C106.375 57.3557 106.048 57.5724 105.282 57.5724H104.644C103.881 57.5724 103.553 57.355 103.553 56.9753V45.3786C103.553 44.997 103.881 44.7803 104.644 44.7803H105.282C106.048 44.7803 106.375 44.9976 106.375 45.3786Z" fill="#004C99"/>
<path d="M117.063 45.9575C117.063 46.4472 116.498 47.5346 116.063 47.5346C115.827 47.5346 115.261 47.0816 114.04 47.0816C112.621 47.0816 112.346 47.6787 112.346 48.0957C112.346 49.0933 113.239 49.4547 114.296 49.8724C115.788 50.4884 117.609 51.2308 117.609 53.6969C117.609 56.6488 115.48 57.6642 113.494 57.6642C110.727 57.6642 109.215 56.6855 109.215 56.0688C109.215 55.5083 109.963 54.4557 110.344 54.4557C110.673 54.4557 111.564 55.2904 113.022 55.2904C113.803 55.2904 114.732 55.0553 114.732 54.021C114.732 52.9336 113.293 52.6266 111.928 51.9922C110.672 51.3938 109.471 50.5251 109.471 48.3497C109.471 45.7408 111.655 44.6895 113.787 44.6895C115.716 44.6901 117.063 45.3605 117.063 45.9575Z" fill="#004C99"/>
<path d="M129.044 45.7419V46.3036C129.044 46.9367 128.879 47.2097 128.497 47.2097H125.6V56.9766C125.6 57.3569 125.274 57.5553 124.509 57.5553H123.87C123.105 57.5553 122.779 57.3569 122.779 56.9766V47.209H119.882C119.5 47.209 119.337 46.9361 119.337 46.303V45.7413C119.337 45.1057 119.501 44.834 119.882 44.834H128.496C128.879 44.8346 129.044 45.1063 129.044 45.7419Z" fill="#004C99"/>
<path d="M137.563 45.1782L141.569 56.8292C141.605 56.9562 141.623 57.0649 141.623 57.1565C141.623 57.4093 141.349 57.5539 140.713 57.5539H139.911C139.383 57.5539 138.982 57.4636 138.893 57.1736L138.163 54.9634H133.866L133.138 57.1736C133.047 57.4453 132.737 57.5539 132.3 57.5539H131.572C130.807 57.5539 130.46 57.4093 130.46 57.1565C130.46 57.0649 130.499 56.9569 130.533 56.8292L134.541 45.1782C134.651 44.8895 135.05 44.7979 135.579 44.7979H136.525C137.052 44.7979 137.454 44.8895 137.563 45.1782ZM135.996 48.187C135.923 48.5674 135.87 48.9661 135.723 49.3464L134.65 52.5719H137.381L136.342 49.3464C136.215 48.9661 136.142 48.5674 136.069 48.187H135.996Z" fill="#004C99"/>
<path d="M154.731 45.3779V56.9746C154.731 57.3549 154.403 57.5539 153.638 57.5539H152.947C152.419 57.5539 152.017 57.4819 151.746 57.0649L146.864 49.6358V56.9746C146.864 57.3549 146.537 57.5539 145.773 57.5539H145.244C144.479 57.5539 144.152 57.3549 144.152 56.9746V45.3779C144.152 44.9962 144.479 44.7979 145.244 44.7979H146.027C146.554 44.7979 146.956 44.8705 147.229 45.2863L151.526 51.8826L152.017 52.6256V45.3779C152.017 44.9962 152.346 44.7979 153.111 44.7979H153.638C154.403 44.7979 154.731 44.9969 154.731 45.3779Z" fill="#004C99"/>
<path d="M167.966 45.9569C167.966 46.4655 167.238 47.661 166.783 47.661C166.565 47.661 165.836 47.0809 164.105 47.0809C161.957 47.0809 160.956 48.4394 160.956 51.1575C160.956 53.8763 161.975 55.2897 164.069 55.2897C165.8 55.2897 166.783 54.5638 167.055 54.5638C167.638 54.5638 168.131 55.8337 168.131 56.1408C168.131 57.2295 165.525 57.6635 164.069 57.6635C159.989 57.6635 158.079 55.6151 158.079 51.1405C158.079 46.8269 160.118 44.6895 164.161 44.6895C165.761 44.6895 167.966 45.1968 167.966 45.9569Z" fill="#004C99"/>
<path d="M178.998 45.7417V46.3034C178.998 46.9365 178.835 47.2095 178.452 47.2095H173.863V49.8373H177.96C178.343 49.8373 178.506 50.1077 178.506 50.7433V51.305C178.506 51.9394 178.343 52.2111 177.96 52.2111H173.863V55.1466H178.471C178.853 55.1466 179.017 55.4183 179.017 56.0526V56.6143C179.017 57.2474 178.852 57.5204 178.471 57.5204H171.789C171.278 57.5204 171.059 57.303 171.059 56.7963V45.5623C171.059 45.0537 171.278 44.8369 171.789 44.8369H178.452C178.835 44.8344 178.998 45.1061 178.998 45.7417Z" fill="#004C99"/>
<path d="M178.482 32.3053H164.718V21.4877H176.963C177.971 21.4877 178.482 20.8161 178.482 19.4898V18.7083C178.482 17.382 177.971 16.7104 176.963 16.7104H164.718V6.67183H178.432C179.44 6.67183 179.952 6.00019 179.952 4.67397V3.89365C179.952 2.56743 179.44 1.89453 178.432 1.89453H161.339C160.004 1.89453 159.329 2.56743 159.329 3.89365V35.0841C159.329 36.4122 160.004 37.0833 161.339 37.0833H178.482C179.49 37.0833 180.001 36.4122 180.001 35.0841V34.3044C180.001 32.9776 179.49 32.3053 178.482 32.3053Z" fill="#004C99"/>
<path d="M87.8914 18.537C90.4993 17.219 92.5281 14.0637 92.5281 11.0574C92.5281 5.32034 88.2247 1.89453 81.0162 1.89453H72.2494C70.9159 1.89453 70.2402 2.56743 70.2402 3.89365V35.0841C70.2402 36.4123 70.9159 37.0839 72.2494 37.0839H80.6739C89.5144 37.0839 93.9969 33.6075 93.9969 26.7509C93.9969 21.6652 89.945 19.3723 87.8914 18.537ZM82.2405 32.3053H75.6301V21.3904H81.4086C84.6256 21.3904 88.4603 22.287 88.4603 26.5556C88.4603 30.2102 86.1934 32.3053 82.2405 32.3053ZM75.6301 16.6131V6.67183H80.5762C85.072 6.67183 86.9909 8.1004 86.9909 11.4472C86.9909 14.3916 84.3169 16.6131 80.7724 16.6131H75.6301Z" fill="#004C99"/>
<path d="M119.088 32.3059H106.158V3.40713C106.158 2.67294 105.724 1.79785 103.658 1.79785H103.267C101.202 1.79785 100.768 2.67294 100.768 3.40713V35.0848C100.768 36.4129 101.443 37.0839 102.777 37.0839H119.088C120.095 37.0839 120.608 36.4129 120.608 35.0848V34.3051C120.608 32.9782 120.095 32.3059 119.088 32.3059Z" fill="#004C99"/>
<path d="M147.694 1.79785H147.304C145.238 1.79785 144.804 2.67294 144.804 3.40713V25.7766C144.804 29.7293 142.491 32.5985 137.552 32.5985C132.616 32.5985 130.302 29.7293 130.302 25.7766V3.40713C130.302 2.67294 129.869 1.79785 127.803 1.79785H127.411C125.345 1.79785 124.911 2.67294 124.911 3.40713V25.6313C124.911 33.0957 128.711 37.377 137.551 37.377C146.393 37.377 150.194 33.0957 150.194 25.6313V3.40713C150.194 2.67294 149.761 1.79785 147.694 1.79785Z" fill="#004C99"/>
<path d="M29.7048 0C13.2996 0 0.000732422 13.23 0.000732422 29.5509C0.000732422 45.8724 13.2996 59.1036 29.7048 59.1036C46.1031 59.1036 59.4045 45.8724 59.4045 29.5509C59.4045 13.23 46.1031 0 29.7048 0Z" fill="#004C99"/>
<path d="M4.36104 24.5111C4.14958 24.1421 4.08862 23.9166 4.08862 23.9166C6.55751 24.6754 7.83767 24.0347 7.83767 24.0347C7.73671 20.8806 9.02576 17.9426 9.02576 17.9426C10.7561 13.7308 14.5128 11.551 18.1399 10.7182C21.748 9.87913 24.742 10.2835 26.816 10.5407C28.8905 10.8092 31.3848 11.6805 32.7608 11.6805C34.1343 11.6805 36.3734 10.9343 38.4117 8.82775C40.4444 6.71996 40.8933 5.09362 41.5213 4.6368C41.9195 4.34679 42.2027 4.83267 42.3589 5.2402C42.5818 5.58202 42.6999 6.09444 42.6999 6.09444C43.4073 8.42401 43.0694 10.9134 42.9278 11.7178C42.8078 12.3989 42.4109 13.3182 42.2859 13.5975C44.2372 16.037 45.4088 17.8642 46.066 19.2145C47.3436 21.6546 47.0909 22.6984 46.6001 22.9884C45.8488 23.4339 45.0697 22.5032 45.0697 22.5032C44.3153 21.5889 42.3303 19.5847 41.2743 18.7558C40.0754 17.8352 36.7309 15.7147 32.9577 15.0671C23.2034 13.3909 21.861 20.2671 22.4719 22.9044C22.6853 23.8363 22.9863 24.6508 23.3374 25.3837C25.9835 30.3619 31.3886 31.0367 32.5595 33.8231C32.7145 34.079 32.8447 34.345 32.9183 34.6426C33.0758 35.2719 32.2141 34.4537 30.9581 33.7372C30.445 33.4756 29.8633 33.2064 29.2544 33.0137C27.8847 32.6409 27.1957 32.9063 27.5291 33.3657C27.8872 33.6146 28.5457 33.9059 29.5509 34.1801C30.358 34.3993 32.8707 35.3458 34.5109 37.1067C34.8049 37.4201 34.9541 37.6729 35.0157 37.8833C35.3834 38.4285 35.2494 38.7495 35.0157 38.9618C34.3883 39.5134 30.9905 37.8574 29.1089 39.0888C26.2343 41.0026 23.9477 41.8101 18.018 38.3135C12.1125 34.8075 9.08989 28.5732 9.08989 28.5732C5.63549 26.9506 4.61504 25.1133 4.36104 24.5111Z" fill="white"/>
<path d="M50.1676 41.1555C48.4416 45.3686 44.6818 47.549 41.0667 48.3786C37.4529 49.2177 34.4564 48.8121 32.3882 48.5587C30.3104 48.2933 27.8174 47.4208 26.4388 47.4208C25.0704 47.4208 22.8219 48.1625 20.7867 50.2678C18.761 52.3794 18.3083 54.0108 17.6828 54.46C17.2783 54.7646 16.9881 54.254 16.8319 53.8415C16.6147 53.5022 16.4954 53.0074 16.4954 53.0074C15.793 50.6665 16.1315 48.191 16.282 47.3898C16.3957 46.7049 16.7932 45.7831 16.9189 45.4994C14.958 43.0459 13.7858 41.2124 13.1318 39.8596C11.8643 37.4346 12.1157 36.3972 12.6009 36.1109C13.3572 35.6642 14.1268 36.5905 14.1268 36.5905C14.8799 37.5079 16.8764 39.519 17.926 40.3423C19.1331 41.268 22.4694 43.3821 26.2401 44.036C36.0083 45.7154 37.3424 38.8322 36.7303 36.1912C36.5157 35.2655 36.2191 34.4549 35.8705 33.7239C33.2327 28.7457 27.8244 28.0671 26.6484 25.2832C26.4935 25.0254 26.3607 24.7562 26.289 24.4587C26.1137 23.7643 27.138 24.8687 28.5921 25.6421C28.9846 25.8348 29.4018 26.0199 29.8494 26.1532C29.8609 26.1583 29.8704 26.1583 29.8831 26.1621C31.0991 26.4837 31.7944 26.2941 31.7278 25.9163C31.43 25.673 30.7816 25.3723 29.6818 25.0823C28.8766 24.8586 26.336 23.7478 24.6881 21.9932C24.4011 21.6836 24.2544 21.4328 24.1941 21.2243C23.8245 20.6752 23.9534 20.3492 24.1941 20.13C24.8063 19.5815 28.2156 21.2527 30.0914 19.9979C32.9762 18.0999 35.2596 17.2867 41.1823 20.7877C47.098 24.2874 50.1053 30.5243 50.1053 30.5243C53.6042 32.1715 54.6094 34.0215 54.8488 34.599C55.0533 34.9578 55.113 35.179 55.113 35.179C52.6415 34.4239 51.3677 35.0596 51.3677 35.0596C51.4617 38.2156 50.1676 41.1555 50.1676 41.1555Z" fill="white"/>
<path d="M24.3567 37.3381C25.6979 37.5738 26.2186 37.5024 26.3024 37.1688C26.3049 37.1612 26.3024 37.1555 26.3049 37.1505C26.2528 36.8112 25.8579 36.3139 24.9066 35.6992C23.7827 34.953 23.4353 35.0787 23.1661 35.5968C23.1064 35.7042 23.0709 35.8476 23.0569 36.0069C23.0804 36.5338 23.4106 37.1638 24.3567 37.3381Z" fill="#004C99"/>
<path d="M34.9754 21.9881C33.6267 21.7512 33.1257 21.8415 33.0361 22.1631V22.1795C33.0869 22.5176 33.4794 23.0072 34.4408 23.6309C35.5615 24.3884 35.9025 24.2589 36.1756 23.737C36.2346 23.6309 36.2696 23.49 36.2848 23.3358C36.2613 22.8063 35.9387 22.1656 34.9754 21.9881Z" fill="#004C99"/>
<path d="M71.7414 65.8557L71.4607 68.5404H73.1441C73.5651 68.5404 74.6135 68.2927 74.6135 66.9608C74.6135 66.0586 73.868 65.8557 73.2736 65.8557H71.7414ZM75.6054 66.8326C75.6054 69.0882 73.6083 69.3561 73.0482 69.3561H71.375L71.0613 72.3428C71.0403 72.4932 70.8886 72.5784 70.6085 72.5784H70.5215C70.1977 72.5784 70.1113 72.4932 70.1113 72.3428L70.8454 65.3616C70.867 65.1367 70.9749 65.04 71.201 65.04H73.393C74.2674 65.04 75.6054 65.2972 75.6054 66.8326Z" fill="#004C99"/>
<path d="M79.7309 64.7161L79.6648 65.3505C79.6648 65.4908 79.5569 65.5862 79.2553 65.5862H79.1257C78.8444 65.5862 78.673 65.5451 78.673 65.3505L78.7365 64.7161C78.7581 64.5449 78.9098 64.4805 79.1899 64.4805H79.3194C79.6229 64.4805 79.7309 64.5449 79.7309 64.7161ZM79.4274 67.1544C79.4274 67.1544 78.9956 71.085 78.9956 71.4079C78.9956 71.847 79.2013 71.847 79.3734 71.847C79.5029 71.847 79.6001 71.7939 79.6648 71.7939C79.6985 71.7939 79.7309 71.8053 79.7309 71.8691C79.7309 71.8792 79.7309 72.0296 79.6864 72.2666C79.6325 72.5345 79.233 72.621 79.04 72.621C78.4348 72.621 78.0786 72.3102 78.0786 71.6006C78.0786 71.1602 78.499 67.1544 78.5206 67.1544C78.5422 66.9832 78.6939 66.9187 78.974 66.9187H79.0171C79.3194 66.9187 79.4274 66.9939 79.4274 67.1544Z" fill="#004C99"/>
<path d="M84.8895 66.0809C83.9713 65.0403 83.8742 64.9531 83.8742 64.8248C83.8862 64.7282 84.0577 64.6953 84.3936 64.6953C84.7378 64.6953 84.9429 64.7705 85.0616 64.974C85.5906 65.8762 85.6884 66.0809 85.6884 66.177C85.6884 66.2414 85.6014 66.273 85.4395 66.273C85.2236 66.2736 84.9975 66.2092 84.8895 66.0809ZM87.5553 71.8698C87.5553 71.8799 87.5553 72.0303 87.5127 72.2672C87.4581 72.5351 87.0587 72.6217 86.8644 72.6217C86.2484 72.6217 85.8928 72.2994 85.8928 71.569V71.4616C85.3207 72.3108 84.6305 72.6217 83.9713 72.6217C82.9242 72.6217 82.5464 72.0208 82.5464 71.2259C82.5464 71.085 82.9572 67.155 82.9572 67.155C82.9782 66.9838 83.1293 66.9194 83.4113 66.9194H83.4532C83.7561 66.9194 83.864 66.9946 83.864 67.155C83.864 67.155 83.4748 70.8607 83.4748 71.0118C83.4748 71.5583 83.7446 71.8388 84.2952 71.8388C84.7702 71.8388 85.5576 71.4837 86.023 70.0122L86.3246 67.1557C86.3469 66.9844 86.4974 66.92 86.7774 66.92H86.8219C87.1228 66.92 87.2308 66.9952 87.2308 67.1557C87.2308 67.1557 86.8104 71.0863 86.8104 71.4092C86.8104 71.8483 87.0263 71.8483 87.1984 71.8483C87.3292 71.8483 87.4257 71.7952 87.4899 71.7952C87.5223 71.7946 87.5553 71.8053 87.5553 71.8698Z" fill="#004C99"/>
<path d="M97.6487 64.7708C97.6487 64.8889 97.4982 65.2857 97.368 65.2857C97.3255 65.2857 97.2068 65.2105 96.8823 65.2105C96.5483 65.2105 96.2993 65.3179 96.2346 65.9624L96.1368 66.9392H97.0759C97.2061 66.9392 97.2487 66.9936 97.2487 67.1427C97.2487 67.1856 97.1737 67.7126 96.7622 67.7126H96.0504L95.5646 72.3414C95.5437 72.5019 95.3919 72.5771 95.1106 72.5771H95.0687C94.7658 72.5771 94.6579 72.5019 94.6579 72.3414L95.1449 67.7126H94.7112C94.562 67.7126 94.5283 67.5938 94.5283 67.4226C94.5283 67.3038 94.5397 66.9386 94.7988 66.9386H95.23L95.3379 65.8544C95.4573 64.6071 96.3095 64.4365 96.8823 64.4365C97.0658 64.4372 97.6487 64.4479 97.6487 64.7708Z" fill="#004C99"/>
<path d="M103.348 68.078C103.144 67.9163 102.765 67.6585 102.225 67.6585C100.791 67.6585 100.434 68.948 100.434 70.2364C100.434 71.4609 100.92 71.8368 101.503 71.8368C101.978 71.8368 102.68 71.4394 103.123 70.0215C103.187 69.312 103.263 68.6144 103.263 68.6144C103.283 68.4211 103.315 68.2492 103.348 68.078ZM104.644 71.869C104.644 71.8791 104.644 72.0295 104.601 72.2664C104.547 72.5343 104.147 72.6209 103.953 72.6209C103.338 72.6209 102.981 72.2987 102.981 71.5683V71.4608C102.54 72.2987 101.925 72.6209 101.298 72.6209C100.597 72.6209 99.4951 72.1691 99.4951 70.3008C99.4951 68.3029 100.531 66.875 102.141 66.875C102.809 66.875 103.273 67.2295 103.511 67.455C103.619 67.1429 103.694 66.918 103.997 66.918H104.061C104.278 66.918 104.331 67.0033 104.331 67.1423C104.331 67.1423 103.899 71.1171 103.899 71.4071C103.899 71.8463 104.115 71.8463 104.288 71.8463C104.418 71.8463 104.514 71.7932 104.58 71.7932C104.611 71.7938 104.644 71.8046 104.644 71.869Z" fill="#004C99"/>
<path d="M111.487 67.4333C111.487 67.5742 111.251 67.9716 111.067 67.9716C111.034 67.9716 110.959 67.9172 110.829 67.8414C110.657 67.7555 110.365 67.6481 109.869 67.6481C108.864 67.6481 108.065 68.3576 108.065 70.3011C108.065 71.3746 108.519 71.8472 109.534 71.8472C110.096 71.8472 110.484 71.7076 110.721 71.6116C110.85 71.5572 110.937 71.5155 110.979 71.5155C111.023 71.5155 111.045 71.5256 111.045 71.6438C111.045 71.6646 111.033 71.913 110.991 72.1278C110.903 72.5574 109.792 72.6212 109.458 72.6212C107.936 72.6212 107.126 71.966 107.126 70.3656C107.126 68.5181 107.903 66.876 109.975 66.876C110.959 66.8753 111.487 67.2083 111.487 67.4333Z" fill="#004C99"/>
<path d="M115.861 64.7161L115.795 65.3505C115.795 65.4908 115.687 65.5862 115.386 65.5862H115.255C114.975 65.5862 114.802 65.5451 114.802 65.3505L114.867 64.7161C114.888 64.5449 115.04 64.4805 115.321 64.4805H115.45C115.753 64.4805 115.861 64.5449 115.861 64.7161ZM115.558 67.1544C115.558 67.1544 115.126 71.085 115.126 71.4079C115.126 71.847 115.331 71.847 115.503 71.847C115.633 71.847 115.73 71.7939 115.794 71.7939C115.829 71.7939 115.861 71.8053 115.861 71.8691C115.861 71.8792 115.861 72.0296 115.817 72.2666C115.762 72.5345 115.363 72.621 115.17 72.621C114.564 72.621 114.208 72.3102 114.208 71.6006C114.208 71.1602 114.628 67.1544 114.65 67.1544C114.671 66.9832 114.823 66.9187 115.103 66.9187H115.147C115.45 66.9187 115.558 66.9939 115.558 67.1544Z" fill="#004C99"/>
<path d="M120.49 64.7165C120.49 64.7165 119.799 71.0854 119.799 71.4089C119.799 71.848 120.017 71.848 120.189 71.848C120.318 71.848 120.416 71.7949 120.48 71.7949C120.513 71.7949 120.546 71.8063 120.546 71.8701C120.546 71.8802 120.546 72.0306 120.501 72.2675C120.449 72.5354 120.05 72.622 119.854 72.622C119.239 72.622 118.884 72.2991 118.884 71.5694C118.884 71.0854 119.584 64.7506 119.584 64.7165C119.606 64.5453 119.758 64.4814 120.038 64.4814H120.081C120.382 64.4814 120.49 64.556 120.49 64.7165Z" fill="#004C99"/>
<path d="M124.431 69.4952H125.197C125.511 69.4952 127.281 69.4952 127.281 68.3895C127.281 67.9914 126.925 67.6471 126.31 67.6471C125.057 67.6471 124.572 68.4963 124.431 69.4952ZM124.377 70.1934V70.3008C124.377 71.4931 125.003 71.8469 125.951 71.8469C126.925 71.8469 127.475 71.3212 127.625 71.3212C127.669 71.3212 127.701 71.3212 127.701 71.4495C127.701 71.4817 127.691 71.7073 127.648 71.9335C127.55 72.4383 126.342 72.6209 125.877 72.6209C124.809 72.6209 123.438 72.3195 123.438 70.3968C123.438 68.4754 124.29 66.875 126.406 66.875C127.768 66.875 128.22 67.7551 128.22 68.3029C128.22 69.796 126.773 70.2686 125.305 70.2686C124.906 70.2686 124.605 70.2364 124.377 70.1934Z" fill="#004C99"/>
<path d="M137.125 64.7165C137.125 64.7165 136.435 71.0854 136.435 71.4089C136.435 71.848 136.651 71.848 136.823 71.848C136.953 71.848 137.05 71.7949 137.113 71.7949C137.146 71.7949 137.179 71.8063 137.179 71.8701C137.179 71.8802 137.179 72.0306 137.137 72.2675C137.082 72.5354 136.683 72.622 136.488 72.622C135.873 72.622 135.518 72.2991 135.518 71.5694C135.518 71.0854 136.219 64.7506 136.219 64.7165C136.24 64.5453 136.391 64.4814 136.671 64.4814H136.715C137.017 64.4814 137.125 64.556 137.125 64.7165Z" fill="#004C99"/>
<path d="M143.861 68.078C143.658 67.9163 143.278 67.6585 142.739 67.6585C141.304 67.6585 140.948 68.948 140.948 70.2364C140.948 71.4609 141.434 71.8368 142.017 71.8368C142.492 71.8368 143.193 71.4394 143.635 70.0215C143.701 69.312 143.776 68.6144 143.776 68.6144C143.797 68.4211 143.829 68.2492 143.861 68.078ZM145.157 71.869C145.157 71.8791 145.157 72.0295 145.115 72.2664C145.06 72.5343 144.661 72.6209 144.467 72.6209C143.851 72.6209 143.495 72.2987 143.495 71.5683V71.4608C143.052 72.2987 142.438 72.6209 141.811 72.6209C141.11 72.6209 140.009 72.1691 140.009 70.3008C140.009 68.3029 141.045 66.875 142.654 66.875C143.322 66.875 143.786 67.2295 144.025 67.455C144.132 67.1429 144.208 66.918 144.51 66.918H144.575C144.792 66.918 144.845 67.0033 144.845 67.1423C144.845 67.1423 144.413 71.1171 144.413 71.4071C144.413 71.8463 144.628 71.8463 144.801 71.8463C144.93 71.8463 145.028 71.7932 145.093 71.7932C145.125 71.7938 145.157 71.8046 145.157 71.869Z" fill="#004C99"/>
<path d="M156.61 67.0801C156.61 67.1344 156.6 67.1761 156.568 67.2513L154.279 72.4071C154.225 72.5353 154.054 72.5783 153.838 72.5783H153.459C153.243 72.5783 153.072 72.5353 153.038 72.4071L151.851 67.2191C151.83 67.123 151.83 67.1117 151.83 67.1015C151.841 66.9941 151.991 66.9189 152.316 66.9189H152.4C152.617 66.9189 152.787 66.9613 152.822 67.0902L153.458 69.9246C153.578 70.4307 153.686 70.9361 153.804 71.4397H153.858C154.053 70.9557 154.258 70.4086 154.474 69.9246L155.715 67.0902C155.77 66.9613 155.994 66.9189 156.157 66.9189H156.169C156.469 66.9196 156.61 66.9726 156.61 67.0801Z" fill="#004C99"/>
<path d="M160.638 64.7161L160.572 65.3505C160.572 65.4908 160.464 65.5862 160.162 65.5862H160.031C159.751 65.5862 159.579 65.5451 159.579 65.3505L159.643 64.7161C159.665 64.5449 159.817 64.4805 160.098 64.4805H160.226C160.53 64.4805 160.638 64.5449 160.638 64.7161ZM160.334 67.1544C160.334 67.1544 159.902 71.085 159.902 71.4079C159.902 71.847 160.109 71.847 160.281 71.847C160.41 71.847 160.506 71.7939 160.572 71.7939C160.605 71.7939 160.638 71.8053 160.638 71.8691C160.638 71.8792 160.638 72.0296 160.594 72.2666C160.54 72.5345 160.141 72.621 159.947 72.621C159.343 72.621 158.987 72.3102 158.987 71.6006C158.987 71.1602 159.406 67.1544 159.427 67.1544C159.448 66.9832 159.601 66.9187 159.881 66.9187H159.924C160.226 66.9187 160.334 66.9939 160.334 67.1544Z" fill="#004C99"/>
<path d="M165.247 65.8122L165.128 66.94H166.045C166.174 66.94 166.217 66.9943 166.217 67.1435C166.217 67.1864 166.142 67.7134 165.732 67.7134H165.041C165.041 67.7134 164.674 71.0204 164.674 71.2346C164.674 71.7299 164.912 71.8475 165.191 71.8475C165.525 71.8475 165.601 71.7723 165.678 71.7723C165.709 71.7723 165.754 71.7944 165.754 71.8696C165.754 71.8797 165.742 72.0844 165.699 72.267C165.633 72.5349 165.279 72.6215 164.965 72.6215C164.48 72.6215 163.757 72.4711 163.757 71.4406C163.757 71.1183 164.134 67.714 164.134 67.714H163.593C163.443 67.714 163.409 67.5952 163.409 67.424C163.409 67.3052 163.423 66.94 163.681 66.94H164.222L164.35 65.8122C164.372 65.641 164.513 65.5771 164.792 65.5771H164.836C165.139 65.5771 165.247 65.6517 165.247 65.8122Z" fill="#004C99"/>
<path d="M172.49 68.078C172.286 67.9163 171.907 67.6585 171.366 67.6585C169.931 67.6585 169.575 68.948 169.575 70.2364C169.575 71.4609 170.062 71.8368 170.645 71.8368C171.12 71.8368 171.82 71.4394 172.264 70.0215C172.328 69.312 172.403 68.6144 172.403 68.6144C172.424 68.4211 172.457 68.2492 172.49 68.078ZM173.785 71.869C173.785 71.8791 173.785 72.0295 173.742 72.2664C173.689 72.5343 173.289 72.6209 173.094 72.6209C172.477 72.6209 172.123 72.2987 172.123 71.5683V71.4608C171.681 72.2987 171.065 72.6209 170.439 72.6209C169.738 72.6209 168.637 72.1691 168.637 70.3008C168.637 68.3029 169.671 66.875 171.281 66.875C171.949 66.875 172.415 67.2295 172.652 67.455C172.76 67.1429 172.835 66.918 173.137 66.918H173.202C173.419 66.918 173.473 67.0033 173.473 67.1423C173.473 67.1423 173.041 71.1171 173.041 71.4071C173.041 71.8463 173.257 71.8463 173.428 71.8463C173.558 71.8463 173.656 71.7932 173.719 71.7932C173.752 71.7938 173.785 71.8046 173.785 71.869Z" fill="#004C99"/>
<path d="M178.406 65.2545C178.406 65.3935 177.865 68.5179 177.597 70.1506C177.574 70.301 177.468 70.3875 177.24 70.3875H177.121C176.883 70.3875 176.819 70.301 176.819 70.1506L177.335 65.2545C177.359 65.1041 177.488 65.0176 177.79 65.0176H178.006C178.317 65.0176 178.406 65.1041 178.406 65.2545ZM177.586 71.6329L177.511 72.3424C177.489 72.4928 177.336 72.5781 177.056 72.5781H176.873C176.549 72.5781 176.462 72.4928 176.462 72.3424L176.539 71.6329C176.55 71.4825 176.669 71.3972 176.992 71.3972H177.175C177.489 71.3972 177.586 71.4825 177.586 71.6329Z" fill="#004C99"/>
</g>
<defs>
<clipPath id="clip0_1192_20913">
<rect width="180" height="72.7152" fill="white"/>
</clipPath>
</defs>
</svg>
