<svg xmlns="http://www.w3.org/2000/svg" xmlns:xlink="http://www.w3.org/1999/xlink" id="Livello_1" x="0px" y="0px" viewBox="0 0 957 335.8" style="enable-background:new 0 0 957 335.8;" xml:space="preserve"><style type="text/css">	.st0{fill:#4A858E;}	.st1{fill:#055D67;}	.st2{fill:url(#SVGID_1_);}	.st3{fill:url(#SVGID_00000148631015824875553190000007772556261080670129_);}	.st4{fill:url(#SVGID_00000025434726335991033590000017738985325724323739_);}	.st5{fill:url(#SVGID_00000059307309503505691440000001563480597094814872_);}</style><g>	<path class="st0" d="M297.3,334.7c-57.1,0-96.9-43.3-96.9-95.8c0-52.6,40.3-96.4,97.4-96.4c57.1,0,96.9,43.3,96.9,95.8  C394.7,290.9,354.4,334.7,297.3,334.7z M297.3,172.6c-36.9,0-62.6,29.5-62.6,65.8c0,36.4,26.3,66.4,63.2,66.4  c36.9,0,62.6-29.5,62.6-65.8C360.5,202.6,334.2,172.6,297.3,172.6z"></path>	<path class="st0" d="M542.8,145.8h32.1v185.8h-27.3L445.1,199.4v132.2H413V145.8h30.3l99.5,128.5V145.8z"></path>	<path class="st1" d="M594,145.8h51.5v69.5h66.1v-69.5h51.5v185.8h-51.5v-70.6h-66.1v70.6H594V145.8z"></path>	<path class="st1" d="M779,239.2v-0.5c0-54.1,41.7-96.6,97.9-96.6c38,0,62.4,15.9,78.8,38.8l-38.7,30  c-10.6-13.3-22.8-21.8-40.6-21.8c-26,0-44.3,22-44.3,49.1v0.5c0,27.9,18.3,49.6,44.3,49.6c19.4,0,30.8-9,41.9-22.6l38.8,27.6  c-17.5,24.2-41.1,41.9-82.3,41.9C821.7,335.3,779,294.7,779,239.2z"></path></g><linearGradient id="SVGID_1_" gradientUnits="userSpaceOnUse" x1="4208.3564" y1="6850.291" x2="4263.0132" y2="6850.291" gradientTransform="matrix(1 0 0 1 -4099.043 -6813.853)">	<stop offset="0" style="stop-color:#ED7F22"></stop>	<stop offset="1" style="stop-color:#E55625"></stop></linearGradient><path class="st2" d="M127.5,0c-10.1,0-18.2,8.2-18.2,18.2s8.2,18.2,18.2,18.2l0,0c10.1,0,18.2,8.2,18.2,18.2 c0,10.1-8.2,18.2-18.2,18.2c20.1,0,36.4-16.3,36.4-36.4C164,16.3,147.7,0,127.5,0z"></path><linearGradient id="SVGID_00000106139607602219788910000003390262957394857378_" gradientUnits="userSpaceOnUse" x1="4190.1372" y1="134.1924" x2="4299.4507" y2="134.1924" gradientTransform="matrix(1 0 0 -1 -4099.043 207.0683)">	<stop offset="0" style="stop-color:#F5AC5E"></stop>	<stop offset="0.7" style="stop-color:#ED7F22"></stop></linearGradient><path style="fill:url(#SVGID_00000106139607602219788910000003390262957394857378_);" d="M127.5,145.8c-20.1,0-36.4-16.3-36.4-36.4 s16.3-36.4,36.4-36.4l0,0c20.1,0,36.4-16.3,36.4-36.4C164,16.3,147.7,0,127.5,0c40.2,0,72.9,32.6,72.9,72.9 C200.4,113.1,167.8,145.8,127.5,145.8z"></path><linearGradient id="SVGID_00000171702532439795516630000007959141382969410987_" gradientUnits="userSpaceOnUse" x1="-81.0332" y1="99.2428" x2="-26.3764" y2="99.2428" gradientTransform="matrix(-1 0 0 -1 10.0612 208.5566)">	<stop offset="0" style="stop-color:#91B6BB"></stop>	<stop offset="0.7" style="stop-color:#055D67"></stop></linearGradient><path style="fill:url(#SVGID_00000171702532439795516630000007959141382969410987_);" d="M72.9,145.8c10.1,0,18.2-8.2,18.2-18.2 s-8.2-18.2-18.2-18.2l0,0c-10.1,0-18.2-8.2-18.2-18.2c0-10.1,8.2-18.2,18.2-18.2c-20.1,0-36.4,16.3-36.4,36.4 C36.4,129.4,52.8,145.8,72.9,145.8z"></path><linearGradient id="SVGID_00000024685962842303367410000016520040971120258443_" gradientUnits="userSpaceOnUse" x1="-44.5956" y1="6812.3647" x2="-44.5956" y2="6958.1162" gradientTransform="matrix(-1 0 0 1 10.0612 -6812.3647)">	<stop offset="0" style="stop-color:#91B6BB"></stop>	<stop offset="1" style="stop-color:#4A858E"></stop></linearGradient><path style="fill:url(#SVGID_00000024685962842303367410000016520040971120258443_);" d="M72.9,0c20.1,0,36.4,16.3,36.4,36.4 S93,72.9,72.9,72.9l0,0c-20.1,0-36.4,16.3-36.4,36.4c0,20.1,16.3,36.4,36.4,36.4C32.6,145.7,0,113.1,0,72.9C0,32.6,32.6,0,72.9,0z"></path></svg>